<?xml version="1.0" standalone="no"?>
<!DOCTYPE svg PUBLIC "-//W3C//DTD SVG 20010904//EN"
 "http://www.w3.org/TR/2001/REC-SVG-20010904/DTD/svg10.dtd">
<svg version="1.0" xmlns="http://www.w3.org/2000/svg"
 width="3030.000000pt" height="3030.000000pt" viewBox="0 0 3030.000000 3030.000000"
 preserveAspectRatio="xMidYMid meet">
<metadata>
Created by potrace 1.11, written by Peter Selinger 2001-2013
</metadata>
<g transform="translate(0.000000,3030.000000) scale(0.100000,-0.100000)"
fill="#000000" stroke="none">
<path d="M13159 24055 c-2 -2 -25 -6 -50 -9 -25 -3 -52 -7 -60 -10 -7 -3 -25
-8 -39 -10 -48 -9 -139 -35 -335 -96 -79 -24 -194 -65 -200 -72 -3 -2 1 -5 8
-5 97 -3 246 -22 382 -49 113 -23 141 -29 220 -53 39 -12 75 -23 80 -24 27 -8
91 -30 100 -36 6 -3 13 -6 18 -7 4 -1 9 -3 12 -4 3 -1 8 -3 13 -4 27 -6 238
-116 305 -160 166 -107 324 -252 424 -391 23 -33 48 -66 54 -73 23 -28 111
-188 143 -261 46 -105 104 -277 120 -356 1 -5 5 -23 9 -40 7 -34 15 -73 23
-125 3 -19 7 -46 10 -60 18 -106 24 -434 9 -560 -19 -157 -7 -380 27 -510 11
-41 20 -79 22 -85 1 -5 4 -14 7 -20 5 -9 10 -25 25 -80 7 -29 87 -214 109
-252 14 -25 25 -50 25 -55 0 -5 8 -21 19 -36 10 -15 41 -61 67 -102 147 -223
376 -365 601 -369 l42 -1 -102 -128 c-56 -70 -113 -142 -127 -161 -14 -18 -34
-45 -46 -59 -39 -52 -190 -267 -209 -299 -11 -18 -23 -33 -27 -33 -4 0 -8 -4
-8 -10 0 -5 -26 -49 -58 -97 -91 -136 -242 -390 -326 -548 -11 -22 -23 -42
-26 -45 -11 -11 -240 -483 -240 -495 0 -2 -15 -37 -33 -77 -38 -82 -72 -160
-73 -168 0 -3 -7 -18 -14 -35 -7 -16 -14 -35 -16 -42 -1 -7 -9 -27 -18 -44 -9
-18 -16 -35 -16 -39 0 -4 -8 -25 -17 -46 -9 -22 -18 -43 -19 -49 -4 -14 -33
-97 -41 -115 -3 -8 -7 -17 -8 -20 0 -3 -13 -42 -29 -87 -15 -45 -27 -85 -27
-88 1 -3 -6 -22 -15 -43 -8 -20 -17 -46 -20 -57 -2 -11 -13 -49 -25 -85 -11
-36 -23 -74 -25 -84 -2 -10 -8 -33 -13 -50 -14 -42 -52 -185 -57 -215 -3 -14
-7 -28 -9 -31 -3 -4 -16 -61 -30 -126 -14 -65 -33 -150 -41 -189 -9 -38 -17
-79 -19 -90 -1 -11 -8 -49 -14 -85 -23 -126 -34 -197 -31 -206 3 -11 -22 -22
-40 -19 -9 2 -70 6 -136 10 -65 4 -135 9 -154 10 -94 7 -218 17 -252 20 -38 4
-110 11 -198 20 -25 2 -65 7 -90 10 -25 3 -62 8 -82 11 -151 17 -202 24 -228
29 -14 3 -41 7 -60 10 -19 2 -46 7 -60 10 -14 3 -38 8 -55 11 -16 2 -48 10
-70 16 -22 6 -44 12 -50 14 -5 1 -41 9 -80 19 -102 24 -108 26 -130 30 -11 3
-31 7 -45 10 -14 4 -36 8 -50 11 -14 2 -36 7 -50 11 -30 7 -30 7 -100 22 -75
15 -100 20 -135 26 -16 3 -37 8 -45 10 -8 2 -31 6 -50 9 -19 3 -48 8 -65 11
-35 7 -125 22 -172 30 -69 11 -89 14 -128 20 -23 3 -51 7 -62 9 -12 3 -46 7
-75 10 -29 4 -64 8 -77 11 -13 2 -49 7 -80 10 -31 3 -72 7 -91 10 -52 7 -126
14 -208 20 -40 3 -94 8 -120 10 -248 23 -754 23 -1032 0 -112 -9 -266 -26
-355 -40 -22 -4 -51 -8 -65 -10 -167 -25 -407 -82 -585 -137 -55 -18 -102 -32
-105 -33 -3 -1 -14 -5 -25 -9 -11 -4 -45 -17 -75 -28 -30 -11 -68 -26 -85 -33
-172 -73 -296 -135 -408 -204 -37 -22 -72 -41 -77 -41 -6 0 -10 -4 -10 -9 0
-5 -8 -12 -18 -15 -10 -4 -28 -15 -40 -26 l-21 -20 -66 134 c-36 73 -73 142
-81 152 -7 11 -36 53 -63 95 -27 42 -53 79 -58 82 -6 4 -9 -42 -8 -120 l2
-125 -43 88 c-47 98 -108 170 -214 252 -109 84 -317 185 -433 212 -36 8 -39 6
-49 -18 -5 -15 -12 -36 -14 -47 -17 -91 -20 -120 -18 -195 3 -91 5 -103 30
-188 19 -66 50 -135 78 -176 19 -29 19 -29 0 -22 -56 23 -161 42 -221 42 l-68
-1 -2 -106 c-1 -93 2 -129 21 -215 18 -84 85 -225 148 -307 51 -69 162 -182
231 -235 l59 -45 -75 -76 c-41 -42 -92 -96 -113 -121 -22 -25 -44 -50 -50 -57
-7 -7 -52 -65 -100 -130 -49 -65 -91 -120 -94 -123 -3 -3 -10 -14 -17 -25 -7
-11 -48 -76 -92 -145 -82 -130 -103 -165 -183 -315 -46 -85 -70 -135 -138
-280 -60 -129 -127 -293 -187 -455 -32 -89 -94 -271 -98 -292 -2 -9 -9 -26
-15 -37 -6 -12 -8 -21 -5 -21 2 0 -2 -17 -9 -37 -12 -31 -56 -181 -71 -243
-14 -55 -57 -228 -61 -242 -2 -10 -6 -28 -10 -40 -3 -13 -7 -32 -9 -43 -3 -11
-7 -31 -10 -45 -4 -14 -8 -36 -11 -50 -3 -14 -7 -33 -10 -43 -3 -10 -7 -30 -9
-45 -3 -15 -7 -38 -10 -52 -3 -14 -12 -63 -21 -110 -9 -47 -18 -94 -20 -105
-2 -11 -6 -33 -9 -50 -2 -16 -7 -41 -10 -55 -2 -14 -7 -43 -10 -65 -3 -22 -7
-51 -10 -65 -6 -30 -13 -81 -20 -140 -4 -33 -21 -68 -62 -128 -31 -46 -61 -89
-67 -96 -6 -6 -15 -19 -21 -28 -13 -22 -116 -170 -127 -183 -26 -30 -198 -278
-198 -285 0 -5 -4 -10 -8 -12 -7 -2 -148 -196 -294 -404 -56 -79 -371 -518
-381 -529 -4 -5 -50 -68 -100 -140 -51 -71 -162 -227 -247 -345 -85 -118 -192
-267 -237 -330 -45 -63 -86 -119 -90 -125 -5 -5 -66 -90 -136 -189 -71 -98
-133 -183 -138 -190 -5 -6 -74 -101 -152 -211 -79 -110 -192 -267 -252 -350
-60 -82 -122 -170 -139 -195 -17 -25 -33 -47 -36 -50 -3 -3 -46 -61 -95 -130
-49 -69 -93 -129 -98 -135 -4 -5 -46 -64 -94 -130 -287 -400 -497 -691 -502
-695 -3 -3 -10 -12 -16 -22 -10 -16 -232 -325 -247 -343 -7 -9 -222 -308 -317
-440 -19 -27 -38 -52 -41 -55 -4 -3 -22 -27 -40 -55 -19 -27 -93 -131 -165
-230 -72 -99 -134 -186 -139 -193 -7 -12 27 -11 94 3 14 3 40 8 59 11 18 3 43
8 55 10 11 3 35 7 51 9 17 3 41 7 55 10 14 3 41 8 60 11 19 3 42 7 51 10 9 2
32 7 50 9 19 3 45 7 59 10 14 3 41 8 60 11 19 4 40 7 45 9 6 1 28 5 50 10 37
6 45 14 100 98 312 483 1152 1743 1514 2273 30 43 92 135 139 204 198 289 588
851 605 870 8 8 29 38 47 65 165 246 773 1076 1008 1375 24 30 49 62 55 70 46
61 237 294 311 380 50 58 100 116 111 128 51 60 206 214 260 259 59 49 156
111 164 104 2 -2 74 66 160 150 142 141 387 366 520 479 29 25 63 55 77 67 53
49 336 276 454 364 446 337 852 591 1260 791 202 99 387 179 510 221 25 9 75
27 113 41 37 14 67 23 67 20 0 -3 9 0 19 6 11 5 46 17 78 26 32 8 65 17 73 19
8 2 40 11 70 19 30 8 66 17 80 20 14 3 36 8 50 10 59 13 77 17 109 22 18 3 43
8 55 10 11 2 41 7 66 10 25 3 56 7 70 10 136 23 566 23 687 0 11 -3 38 -7 59
-10 37 -6 59 -10 114 -22 14 -3 36 -7 50 -10 14 -3 33 -7 42 -10 10 -3 30 -7
45 -10 15 -3 31 -8 37 -12 6 -3 16 -7 21 -8 6 -1 37 -11 70 -22 174 -58 322
-129 398 -194 76 -64 101 -84 192 -149 39 -28 79 -57 90 -65 166 -120 777
-449 925 -499 3 0 22 -9 44 -18 21 -9 40 -17 41 -17 1 0 20 -8 41 -17 22 -9
44 -18 49 -19 6 -1 24 -8 40 -15 17 -6 35 -13 40 -15 6 -1 35 -12 65 -24 30
-12 60 -23 65 -24 6 -2 17 -6 25 -9 21 -8 93 -30 105 -33 6 -1 30 -9 55 -17
48 -16 182 -56 209 -62 9 -2 63 -16 121 -30 58 -15 113 -28 123 -30 10 -2 26
-6 35 -9 9 -3 31 -8 47 -11 17 -2 41 -7 55 -10 14 -3 36 -7 50 -10 14 -3 36
-7 50 -10 36 -8 128 -24 170 -30 14 -2 44 -7 68 -10 24 -4 50 -8 58 -9 9 -1
29 -44 53 -112 73 -208 165 -444 197 -505 8 -16 14 -31 14 -34 0 -3 12 -31 26
-62 13 -32 35 -80 47 -108 41 -93 253 -509 314 -615 199 -348 397 -647 621
-940 107 -139 362 -446 441 -529 28 -29 51 -55 51 -57 0 -16 544 -544 625
-606 17 -12 35 -28 40 -34 9 -11 87 -77 209 -177 25 -21 85 -68 134 -105 48
-36 92 -70 97 -74 31 -25 153 -113 240 -173 55 -38 102 -73 103 -77 2 -4 8 -8
13 -8 8 0 147 -88 159 -100 14 -16 401 -239 520 -301 47 -24 87 -46 90 -49 5
-6 299 -152 310 -155 3 -1 21 -8 40 -17 19 -9 94 -41 165 -72 72 -32 144 -63
160 -70 17 -7 64 -26 105 -41 41 -15 83 -31 92 -36 51 -26 574 -199 678 -223
8 -2 42 -11 75 -20 57 -16 69 -19 113 -31 44 -11 280 -66 306 -71 16 -3 32 -6
35 -8 3 -2 22 -7 41 -10 61 -10 132 -24 160 -31 8 -2 23 -4 34 -4 17 -1 16 -4
-8 -35 -14 -19 -26 -39 -26 -44 0 -6 -4 -12 -8 -14 -4 -1 -36 -40 -70 -84
l-63 -82 6 -88 c4 -49 8 -116 11 -149 2 -33 6 -96 9 -140 3 -44 8 -109 10
-145 3 -36 7 -101 10 -145 12 -187 15 -218 19 -222 5 -5 153 192 223 297 96
144 162 252 253 416 34 59 141 275 161 322 l14 33 58 -5 c345 -34 474 -40 852
-40 283 -1 480 5 625 19 19 2 71 6 115 10 44 3 94 8 110 10 65 7 141 16 165
20 14 2 54 6 90 10 36 3 72 8 80 10 8 2 29 6 45 9 60 9 120 18 135 21 8 1 35
6 60 10 25 4 54 9 65 11 11 2 34 7 50 9 17 3 37 8 45 10 8 2 29 7 45 10 34 6
52 9 115 24 25 5 56 12 70 15 14 3 35 7 47 10 42 9 308 77 338 86 17 5 54 17
83 26 29 9 58 17 65 18 50 8 500 161 543 184 10 5 22 10 27 11 4 0 23 8 43 16
20 8 38 15 40 15 9 0 250 101 276 116 15 8 29 14 30 14 19 -7 550 260 772 389
49 28 92 51 97 51 4 0 9 3 11 8 2 4 44 31 93 61 188 114 693 465 765 533 8 8
38 32 65 53 370 292 841 754 1160 1139 22 26 45 53 50 59 151 171 511 681 660
932 32 55 61 102 64 105 3 3 14 21 25 40 10 19 32 60 49 90 17 30 46 82 64
115 34 61 227 451 255 515 9 19 28 62 43 95 111 245 355 924 355 987 0 8 3 18
7 22 4 3 8 12 9 19 1 7 12 48 24 92 47 173 51 187 76 305 2 14 7 33 10 42 3
10 7 30 10 45 3 16 7 36 10 45 3 9 7 27 9 40 19 94 27 136 31 153 12 56 15 73
19 105 3 19 7 46 10 60 2 13 7 42 10 65 3 22 8 51 10 65 11 58 37 261 49 380
32 317 40 487 40 845 0 327 -6 498 -28 740 -10 111 -25 248 -31 285 -3 14 -7
48 -9 75 -3 28 -8 61 -10 75 -3 14 -8 45 -12 70 -4 25 -8 54 -10 65 -4 29 -15
94 -20 119 -5 26 -21 118 -29 165 -3 19 -7 37 -9 40 -2 3 -7 24 -10 46 -4 22
-11 56 -16 75 -5 19 -11 46 -14 60 -3 21 -28 129 -41 180 -6 24 -45 174 -49
190 -2 8 -9 27 -15 43 -6 15 -8 27 -6 27 2 0 0 12 -6 28 -6 15 -12 34 -14 42
-6 28 -118 374 -132 410 -4 8 -7 17 -8 20 -1 3 -7 18 -13 33 -7 16 -12 34 -12
41 0 7 -3 16 -7 20 -5 4 -8 11 -9 14 0 4 -4 16 -9 27 -4 11 -26 65 -47 120
-21 55 -46 114 -53 132 -8 17 -15 34 -15 37 0 5 -11 30 -74 169 -67 146 -93
203 -153 322 -82 163 -202 384 -263 485 -5 8 -34 57 -65 108 -510 842 -1240
1646 -2063 2270 -214 162 -557 391 -767 513 -228 131 -543 295 -750 389 -88
40 -322 140 -328 140 -2 0 -25 9 -51 20 -25 12 -49 21 -53 22 -5 1 -24 8 -43
16 -33 14 -222 82 -340 122 -30 11 -102 33 -160 50 -58 18 -134 40 -170 51
-36 11 -74 22 -85 24 -11 3 -65 16 -119 31 -55 14 -108 27 -119 30 -10 2 -27
6 -37 9 -10 3 -29 8 -42 11 -13 2 -43 9 -68 14 -25 5 -56 12 -70 15 -14 3 -36
7 -50 10 -42 8 -74 15 -100 20 -14 3 -41 8 -60 11 -19 3 -42 7 -50 9 -8 2 -31
7 -50 10 -19 3 -48 8 -65 11 -16 3 -45 7 -64 10 -19 2 -46 6 -60 9 -14 2 -45
6 -68 9 -24 3 -62 9 -85 12 -51 7 -71 10 -158 18 -36 4 -80 9 -98 11 -18 2
-72 7 -120 11 -48 3 -105 8 -127 10 -83 6 -444 18 -555 18 -221 0 -508 -14
-790 -39 -19 -1 -57 -5 -85 -9 -27 -3 -75 -8 -105 -11 -30 -4 -57 -8 -60 -10
-3 -1 -34 -6 -70 -9 -36 -4 -77 -8 -90 -11 -13 -3 -40 -7 -60 -10 -20 -3 -47
-7 -60 -10 -13 -3 -40 -7 -60 -10 -20 -3 -47 -8 -60 -10 -14 -3 -37 -7 -52
-10 -16 -3 -40 -7 -55 -10 -33 -6 -69 -13 -103 -20 -62 -13 -76 -16 -95 -20
-31 -7 -63 -15 -82 -19 -10 -2 -40 -10 -68 -16 -27 -6 -58 -14 -67 -16 -10 -2
-27 -6 -37 -8 -11 -3 -54 -14 -96 -26 -42 -12 -84 -23 -93 -25 -20 -4 -87 -24
-237 -72 -60 -19 -114 -36 -120 -38 -5 -1 -17 -5 -25 -8 -8 -3 -74 -26 -146
-51 -131 -44 -414 -154 -522 -202 -31 -14 -70 -32 -87 -39 -145 -64 -410 -194
-520 -255 -27 -15 -81 -44 -120 -65 -81 -44 -294 -171 -375 -223 -374 -241
-642 -437 -910 -666 -14 -12 -54 -45 -90 -74 -36 -29 -71 -57 -77 -63 -33 -26
-225 -150 -278 -179 -96 -52 -108 -58 -156 -79 -56 -24 -183 -67 -230 -76 -19
-4 -79 -9 -134 -10 -113 -4 -204 19 -285 70 -56 35 -163 144 -181 184 -8 17
-16 31 -20 31 -5 0 -34 61 -72 150 -8 19 -24 67 -35 105 -27 95 -39 151 -58
275 -5 32 -17 199 -17 225 0 11 4 74 9 140 15 219 10 609 -11 775 -14 110 -23
174 -31 214 -2 11 -7 35 -9 51 -9 48 -55 217 -70 258 -8 20 -15 38 -14 40 0 1
-4 15 -10 30 -6 16 -11 31 -11 34 0 14 -96 204 -128 253 -70 107 -152 199
-232 259 -19 14 -37 29 -40 32 -21 27 -341 152 -470 184 -8 2 -15 4 -15 5 0 1
-7 3 -15 5 -8 1 -40 8 -70 14 -30 6 -73 14 -95 17 -22 3 -51 8 -65 10 -35 6
-297 14 -301 9z"/>
</g>
</svg>
